<svg xmlns="http://www.w3.org/2000/svg" version="1.1" xmlns:xlink="http://www.w3.org/1999/xlink" width="512" height="512" x="0" y="0" viewBox="0 0 512 512" style="enable-background:new 0 0 512 512" xml:space="preserve" class=""><g><path fill-rule="evenodd" d="M205.685 344.803h100.63c20.197-12.225 35.586-31.59 42.674-54.598-20.803-28.857-54.699-47.646-92.989-47.646-38.291 0-72.187 18.789-92.99 47.646 7.089 23.008 22.478 42.373 42.675 54.598zM135.038 80.556l9.781 25.762a2.001 2.001 0 0 0 1.806 1.312l27.523 1.341c1.872.091 2.638 2.449 1.177 3.624l-21.478 17.263a2 2 0 0 0-.69 2.123l7.229 26.591c.491 1.809-1.514 3.265-3.082 2.239l-23.056-15.092a2 2 0 0 0-2.232 0l-23.055 15.092c-1.568 1.026-3.573-.431-3.082-2.239l7.229-26.591a2 2 0 0 0-.69-2.123L90.94 112.595c-1.461-1.175-.695-3.532 1.177-3.624l27.524-1.341a2.001 2.001 0 0 0 1.806-1.312l9.781-25.762c.661-1.742 3.149-1.742 3.81 0zm244.726 0 9.781 25.762a2.001 2.001 0 0 0 1.806 1.312l27.523 1.341c1.872.091 2.638 2.45 1.177 3.624l-21.478 17.263a2.002 2.002 0 0 0-.69 2.123l7.229 26.591c.491 1.809-1.514 3.265-3.082 2.239l-23.056-15.092a2 2 0 0 0-2.232 0l-23.055 15.092c-1.568 1.026-3.573-.431-3.082-2.239l7.229-26.591a2 2 0 0 0-.69-2.123l-21.478-17.263c-1.461-1.175-.695-3.532 1.177-3.624l27.524-1.341a2.001 2.001 0 0 0 1.806-1.312l9.781-25.762c.662-1.743 3.149-1.743 3.81 0zM257.905 11.792l9.781 25.761a2 2 0 0 0 1.806 1.312l27.523 1.341c1.872.091 2.638 2.45 1.177 3.624l-21.478 17.263a2.003 2.003 0 0 0-.69 2.123l7.229 26.591c.491 1.809-1.514 3.265-3.082 2.239l-23.056-15.093a2 2 0 0 0-2.232 0l-23.055 15.093c-1.568 1.026-3.573-.431-3.082-2.239l7.229-26.591a2 2 0 0 0-.69-2.123L213.807 43.83c-1.461-1.175-.695-3.532 1.177-3.624l27.523-1.341a2.001 2.001 0 0 0 1.806-1.312l9.781-25.761c.662-1.742 3.15-1.742 3.811 0zM142.71 261.515c0 62.573 50.716 113.289 113.289 113.289 62.574 0 113.29-50.716 113.29-113.289H496v32.479l-39.772 15.309a204.826 204.826 0 0 1-24.865 59.977l17.31 38.974-45.934 45.935-38.961-17.305a204.8 204.8 0 0 1-59.993 24.87l-15.305 39.762h-64.96l-15.309-39.772a204.815 204.815 0 0 1-59.977-24.865l-38.974 17.31-45.935-45.934 17.305-38.961a204.798 204.798 0 0 1-24.869-59.993L16 293.995v-32.48zm113.291-144.813c31.993 0 57.928 25.936 57.928 57.929s-25.936 57.928-57.928 57.928c-31.993 0-57.929-25.936-57.929-57.928 0-31.993 25.936-57.929 57.929-57.929z" clip-rule="evenodd" fill="#ae252c" opacity="1" data-original="#000000"></path></g></svg>