<?xml version="1.0" encoding="UTF-8"?>
<!DOCTYPE svg PUBLIC "-//W3C//DTD SVG 1.1//EN" "http://www.w3.org/Graphics/SVG/1.1/DTD/svg11.dtd">
<!-- Creator: CorelDRAW 2021.5 -->
<svg xmlns="http://www.w3.org/2000/svg" xml:space="preserve" width="214.045mm" height="70.8176mm" version="1.1" style="shape-rendering:geometricPrecision; text-rendering:geometricPrecision; image-rendering:optimizeQuality; fill-rule:evenodd; clip-rule:evenodd"
viewBox="0 0 20075.03 6641.89"
 xmlns:xlink="http://www.w3.org/1999/xlink"
 xmlns:xodm="http://www.corel.com/coreldraw/odm/2003">
 <defs>
  <style type="text/css">
   <![CDATA[
    .fil0 {fill:#F6AD71}
    .fil2 {fill:#BC3222}
    .fil3 {fill:#BC3222}
    .fil4 {fill:#8E331F}
    .fil1 {fill:#8E331F}
    .fil5 {fill:#434242;fill-rule:nonzero}
   ]]>
  </style>
 </defs>
 <g id="Layer_x0020_1">
  <metadata id="CorelCorpID_0Corel-Layer"/>
  <g id="_1520757813232">
   <polygon class="fil0" points="3017.44,3402.47 3060.31,4767.71 5849.31,3091.42 5849.31,1808.44 "/>
   <polygon class="fil1" points="3013.3,5285.53 3036.89,6641.89 5807.7,5103.77 5869.85,3637.41 "/>
   <polygon class="fil1" points="51.93,1768.52 1053.02,2384.57 1025.1,4466.88 2891.5,5473.02 2891.5,6640.94 -0,5045.29 "/>
   <polygon class="fil1" points="166.33,1649.87 1141.76,2278.76 2996.31,1180.77 4746.96,2257.59 5773.73,1667.21 2996.31,0 "/>
   <polygon class="fil2" points="350.93,1768.88 1326.35,2397.77 2981.99,1422.35 4547.79,2372.1 5574.56,1781.72 2981.99,241.59 "/>
   <polygon class="fil3" points="261.09,1897.22 1262.18,2513.28 1247.69,4373.41 2892.15,5272.69 2892.15,6440.61 222.59,4951.82 "/>
   <polygon class="fil3" points="3013.29,5285.52 3038.95,6466.28 5670.02,4977.49 5682.85,3745.39 "/>
   <polygon class="fil4" points="3192.59,3507.35 3192.59,4688.12 5849.32,3143.34 5849.32,1967.22 "/>
  </g>
  <path class="fil5" d="M6531.74 3706.11c0,-144.05 20.88,-269.83 62.62,-377.34 41.75,-107.51 97.08,-196.75 165.97,-267.73 68.89,-70.98 148.21,-124.21 237.99,-159.7 89.77,-35.49 181.62,-53.23 275.56,-53.23 219.19,0 387.24,68.37 504.15,205.11 116.91,136.73 175.36,344.97 175.36,624.72 0,12.52 0,28.7 0,48.54 0,19.83 -1.04,38.1 -3.12,54.8l-1114.78 0c12.52,169.09 61.58,297.48 147.17,385.16 85.59,87.67 219.2,131.52 400.82,131.52 102.29,0 188.4,-8.87 258.34,-26.62 69.93,-17.74 122.64,-34.97 158.13,-51.67l40.71 244.24c-35.49,18.79 -97.6,38.62 -186.32,59.5 -88.72,20.88 -189.45,31.32 -302.18,31.32 -141.96,0 -264.61,-21.4 -367.94,-64.2 -103.34,-42.8 -188.4,-101.77 -255.21,-176.92 -66.81,-75.15 -116.38,-164.4 -148.74,-267.74 -32.36,-103.34 -48.54,-216.59 -48.54,-339.75zm1117.9 -159.7c2.09,-131.52 -30.79,-239.56 -98.64,-324.11 -67.85,-84.54 -161.27,-126.82 -280.26,-126.82 -66.81,0 -125.78,13.06 -176.92,39.15 -51.14,26.09 -94.46,60.02 -129.95,101.77 -35.49,41.75 -63.15,89.77 -82.98,144.04 -19.83,54.28 -32.88,109.6 -39.14,165.97l807.9 0zm1327.72 989.52c-43.85,0 -91.33,-1.04 -142.48,-3.13 -51.14,-2.08 -102.29,-5.21 -153.44,-9.39 -51.14,-4.17 -101.77,-9.4 -151.87,-15.66 -50.1,-6.26 -96.03,-14.61 -137.78,-25.05l0 -2104.3c41.75,-10.44 87.67,-18.79 137.78,-25.05 50.1,-6.26 100.73,-11.48 151.87,-15.65 51.15,-4.17 101.77,-7.31 151.87,-9.4 50.1,-2.08 97.08,-3.13 140.92,-3.13 125.25,0 242.68,9.4 352.28,28.18 109.6,18.8 204.58,50.63 284.96,95.51 80.38,44.88 143.52,103.85 189.45,176.92 45.92,73.06 68.89,162.83 68.89,269.3 0,119 -28.18,216.59 -84.55,292.79 -56.37,76.19 -131.52,133.09 -225.46,170.66 127.35,37.58 228.59,97.07 303.74,178.49 75.15,81.42 112.73,196.23 112.73,344.46 0,217.11 -79.85,380.46 -239.56,490.06 -159.7,109.59 -412.82,164.39 -759.36,164.39zm-284.96 -1030.23l0 764.07c22.96,2.08 50.1,4.17 81.42,6.26 27.13,2.09 58.97,3.66 95.51,4.7 36.53,1.05 78.8,1.57 126.82,1.57 89.77,0 174.83,-5.74 255.21,-17.22 80.38,-11.48 150.83,-31.84 211.37,-61.07 60.54,-29.22 109.08,-69.93 145.61,-122.12 36.53,-52.19 54.8,-117.95 54.8,-197.28 0,-70.98 -13.57,-131 -40.7,-180.06 -27.14,-49.06 -66.29,-88.21 -117.43,-117.43 -51.14,-29.22 -112.21,-50.1 -183.19,-62.62 -70.98,-12.53 -150.31,-18.8 -237.98,-18.8l-391.43 0zm0 -244.24l319.4 0c75.15,0 146.13,-5.22 212.94,-15.65 66.81,-10.44 124.74,-29.23 173.79,-56.37 49.06,-27.14 87.68,-62.63 115.87,-106.47 28.18,-43.84 42.27,-99.16 42.27,-165.97 0,-62.62 -14.61,-115.33 -43.84,-158.13 -29.22,-42.8 -69.41,-77.24 -120.56,-103.34 -51.15,-26.1 -111.17,-45.41 -180.06,-57.93 -68.9,-12.53 -141.96,-18.79 -219.2,-18.79 -77.24,0 -137.78,1.04 -181.62,3.12 -43.84,2.09 -83.5,5.22 -118.99,9.4l0 670.12zm2295.32 -407.08c25.05,0 53.75,1.57 86.11,4.7 32.37,3.12 64.2,7.31 95.51,12.52 31.32,5.22 60.02,10.44 86.11,15.66 26.1,5.21 45.41,9.91 57.93,14.09l-50.1 253.64c-22.96,-8.35 -61.07,-18.27 -114.29,-29.75 -53.23,-11.48 -121.61,-17.22 -205.11,-17.22 -54.28,0 -108.04,5.74 -161.27,17.22 -53.23,11.48 -88.2,19.31 -104.9,23.48l0 1368.42 -291.22 0 0 -1559.43c68.9,-25.05 154.49,-48.54 256.77,-70.45 102.3,-21.93 217.11,-32.88 344.46,-32.88zm898.71 1662.77l-291.22 0 0 -1628.33 291.22 0 0 1628.33zm-147.17 -1922.68c-52.19,0 -96.56,-17.22 -133.09,-51.67 -36.53,-34.45 -54.8,-80.89 -54.8,-139.35 0,-58.45 18.27,-104.9 54.8,-139.34 36.53,-34.45 80.89,-51.67 133.09,-51.67 52.18,0 96.55,17.22 133.08,51.67 36.54,34.44 54.8,80.89 54.8,139.34 0,58.46 -18.26,104.9 -54.8,139.35 -36.53,34.45 -80.89,51.67 -133.08,51.67zm1355.89 1960.26c-131.52,0 -246.86,-20.88 -346.02,-62.63 -99.16,-41.75 -182.66,-100.2 -250.51,-175.36 -67.85,-75.15 -118.47,-164.4 -151.87,-267.74 -33.41,-103.34 -50.1,-217.63 -50.1,-342.88 0,-125.26 18.26,-240.08 54.8,-344.46 36.53,-104.38 88.2,-194.67 155,-270.86 66.8,-76.2 148.74,-135.69 245.81,-178.49 97.07,-42.8 205.11,-64.2 324.1,-64.2 73.07,0 146.13,6.27 219.2,18.79 73.06,12.53 143,32.36 209.81,59.5l-65.76 247.38c-43.84,-20.88 -94.46,-37.57 -151.87,-50.1 -57.41,-12.52 -118.47,-18.79 -183.19,-18.79 -162.83,0 -287.57,51.14 -374.2,153.44 -86.63,102.3 -129.95,251.56 -129.95,447.79 0,87.67 9.91,168.05 29.75,241.11 19.83,73.07 51.14,135.69 93.94,187.89 42.8,52.19 97.6,92.37 164.4,120.56 66.8,28.18 148.21,42.28 244.24,42.28 77.24,0 147.17,-7.32 209.81,-21.93 62.63,-14.61 111.68,-30.27 147.17,-46.97l40.71 244.25c-16.7,10.44 -40.71,20.35 -72.02,29.75 -31.32,9.39 -66.81,17.74 -106.47,25.05 -39.66,7.31 -81.94,13.56 -126.82,18.79 -44.89,5.21 -88.21,7.83 -129.95,7.83zm1337.1 -933.16c62.63,48.01 128.91,107.51 198.85,178.49 69.93,70.98 138.82,147.7 206.67,230.16 67.85,82.46 132.04,165.97 192.58,250.51 60.54,84.55 111.68,163.36 153.44,236.42l-341.33 0c-43.84,-73.06 -94.46,-147.7 -151.87,-223.89 -57.41,-76.2 -117.42,-149.26 -180.06,-219.2 -62.62,-69.93 -126.3,-134.13 -191.01,-192.58 -64.71,-58.46 -126.31,-107.51 -184.75,-147.17l0 782.84 -291.22 0 0 -2379.86 291.22 -50.1 0 1484.28c50.1,-50.1 105.42,-105.43 165.96,-165.97 60.54,-60.54 120.04,-122.12 178.49,-184.74 58.46,-62.63 113.78,-122.65 165.97,-180.06 52.19,-57.42 97.07,-108.04 134.65,-151.88l341.32 0c-48.01,52.19 -100.2,109.6 -156.56,172.23 -56.37,62.62 -114.83,125.78 -175.37,189.44 -60.54,63.67 -121.6,127.35 -183.18,191.02 -61.59,63.67 -119.51,123.69 -173.8,180.06zm1634.59 0c62.63,48.01 128.91,107.51 198.85,178.49 69.93,70.98 138.82,147.7 206.67,230.16 67.85,82.46 132.04,165.97 192.58,250.51 60.54,84.55 111.68,163.36 153.44,236.42l-341.33 0c-43.84,-73.06 -94.46,-147.7 -151.87,-223.89 -57.41,-76.2 -117.42,-149.26 -180.06,-219.2 -62.62,-69.93 -126.3,-134.13 -191.01,-192.58 -64.71,-58.46 -126.31,-107.51 -184.75,-147.17l0 782.84 -291.22 0 0 -2379.86 291.22 -50.1 0 1484.28c50.1,-50.1 105.42,-105.43 165.96,-165.97 60.54,-60.54 120.04,-122.12 178.49,-184.74 58.46,-62.63 113.78,-122.65 165.97,-180.06 52.19,-57.42 97.07,-108.04 134.65,-151.88l341.32 0c-48.01,52.19 -100.2,109.6 -156.56,172.23 -56.37,62.62 -114.83,125.78 -175.37,189.44 -60.54,63.67 -121.6,127.35 -183.18,191.02 -61.59,63.67 -119.51,123.69 -173.8,180.06zm1337.11 895.58l-291.22 0 0 -1628.33 291.22 0 0 1628.33zm-147.17 -1922.68c-52.19,0 -96.56,-17.22 -133.09,-51.67 -36.53,-34.45 -54.8,-80.89 -54.8,-139.35 0,-58.45 18.27,-104.9 54.8,-139.34 36.53,-34.45 80.89,-51.67 133.09,-51.67 52.18,0 96.55,17.22 133.08,51.67 36.54,34.44 54.8,80.89 54.8,139.34 0,58.46 -18.26,104.9 -54.8,139.35 -36.53,34.45 -80.89,51.67 -133.08,51.67zm1136.69 1953.99c-179.53,-4.17 -306.88,-42.8 -382.03,-115.87 -75.15,-73.06 -112.73,-186.84 -112.73,-341.32l0 -1953.99 291.22 -50.1 0 1957.12c0,48.02 4.17,87.68 12.53,119 8.35,31.32 21.92,56.37 40.7,75.15 18.79,18.79 43.84,32.88 75.15,42.27 31.32,9.4 69.94,17.23 115.87,23.48l-40.71 244.25zm366.38 -1612.67c66.81,-16.7 155.53,-34.45 266.17,-53.23 110.64,-18.8 237.99,-28.18 382.03,-28.18 129.43,0 236.94,18.26 322.53,54.8 85.59,36.53 153.96,87.67 205.11,153.44 51.15,65.76 87.16,144.57 108.04,236.41 20.88,91.86 31.32,193.11 31.32,303.75l0 914.36 -291.22 0 0 -851.74c0,-100.2 -6.78,-185.8 -20.35,-256.77 -13.57,-70.98 -36.01,-128.39 -67.32,-172.22 -31.32,-43.84 -73.07,-75.68 -125.25,-95.51 -52.19,-19.84 -116.91,-29.75 -194.15,-29.75 -31.32,0 -63.67,1.04 -97.07,3.13 -33.4,2.08 -65.24,4.69 -95.51,7.82 -30.27,3.13 -57.41,6.79 -81.42,10.96 -24.01,4.17 -41.23,7.31 -51.67,9.4l0 1374.68 -291.22 0 0 -1581.35z"/>
 </g>
</svg>
