<svg xmlns="http://www.w3.org/2000/svg" version="1.1" xmlns:xlink="http://www.w3.org/1999/xlink" width="512" height="512" x="0" y="0" viewBox="0 0 512 512" style="enable-background:new 0 0 512 512" xml:space="preserve" class=""><g><path d="M160 213.333h64a10.66 10.66 0 0 0 10.667-10.667v-64A10.66 10.66 0 0 0 224 127.999h-64a10.66 10.66 0 0 0-10.667 10.667v64A10.66 10.66 0 0 0 160 213.333zM277.333 202.667A10.66 10.66 0 0 0 288 213.334h64a10.66 10.66 0 0 0 10.667-10.667v-64A10.66 10.66 0 0 0 352 128h-64a10.66 10.66 0 0 0-10.667 10.667v64zM160 341.333h64a10.66 10.66 0 0 0 10.667-10.667v-64A10.66 10.66 0 0 0 224 255.999h-64a10.66 10.66 0 0 0-10.667 10.667v64A10.66 10.66 0 0 0 160 341.333zM352 256h-64a10.66 10.66 0 0 0-10.667 10.667v64A10.66 10.66 0 0 0 288 341.334h64a10.66 10.66 0 0 0 10.667-10.667v-64A10.66 10.66 0 0 0 352 256zM245.333 85.333h21.333a10.66 10.66 0 0 0 10.667-10.667 10.66 10.66 0 0 0-10.667-10.667h-21.333a10.66 10.66 0 0 0-10.667 10.667 10.662 10.662 0 0 0 10.667 10.667z" fill="#ffffff" opacity="1" data-original="#000000"></path><path d="M384 0H128c-23.531 0-42.667 19.135-42.667 42.667v426.667C85.333 492.865 104.469 512 128 512h256c23.531 0 42.667-19.135 42.667-42.667V42.667C426.667 19.135 407.531 0 384 0zm-96 469.333h-64c-5.896 0-10.667-4.771-10.667-10.667S218.104 448 224 448h64c5.896 0 10.667 4.771 10.667 10.667s-4.771 10.666-10.667 10.666zm96-64H128V42.667h256v362.666z" fill="#ffffff" opacity="1" data-original="#000000"></path><circle cx="352" cy="74.667" r="10.667" fill="#ffffff" opacity="1" data-original="#000000"></circle></g></svg>