<svg xmlns="http://www.w3.org/2000/svg" version="1.1" xmlns:xlink="http://www.w3.org/1999/xlink" width="512" height="512" x="0" y="0" viewBox="0 0 24 24" style="enable-background:new 0 0 512 512" xml:space="preserve"><g><path d="M20 3c0-1.654-1.346-3-3-3H7C5.346 0 4 1.346 4 3v18c0 1.654 1.346 3 3 3h10c1.654 0 3-1.346 3-3zm-2 18a1 1 0 0 1-1 1H7a1 1 0 0 1-1-1V3a1 1 0 0 1 1-1h.5c.552 0 1 .448 1 1s.448 1 1 1h5c.552 0 1-.448 1-1s.448-1 1-1h.5a1 1 0 0 1 1 1z" fill="#ae252c" opacity="1" data-original="#000000"></path><path d="M15.44 7H8.56C7.7 7 7 7.7 7 8.56v7.881C7 17.301 7.7 18 8.56 18h4.871c.452 0 .877-.176 1.198-.496l1.875-1.875c.315-.316.496-.752.496-1.199V8.56C17 7.7 16.3 7 15.44 7zm-.846 4.219L11.816 14.5a.752.752 0 0 1-.572.266c-.254-.021-.433-.099-.576-.269l-1.266-1.516a.75.75 0 1 1 1.152-.962l.694.832 2.202-2.601a.75.75 0 1 1 1.144.969z" fill="#ae252c" opacity="1" data-original="#000000"></path></g></svg>