<svg xmlns="http://www.w3.org/2000/svg" version="1.1" xmlns:xlink="http://www.w3.org/1999/xlink" width="512" height="512" x="0" y="0" viewBox="0 0 512 512" style="enable-background:new 0 0 512 512" xml:space="preserve" class=""><g><path fill-rule="evenodd" d="M280.958 17.291c12.498 1.298 22.102 11.006 23.265 23.518l3.224 34.688c1.758 18.92 23.968 28.015 38.491 15.763l26.617-22.451c9.604-8.101 23.256-8.286 33.075-.447a241.435 241.435 0 0 1 36.803 36.5c7.921 9.756 7.847 23.412-.178 33.082l-22.242 26.799c-12.134 14.622-2.862 36.756 16.071 38.364l34.724 2.946c12.525 1.063 22.314 10.597 23.706 23.091a242.537 242.537 0 0 1 .196 51.812c-1.299 12.498-11.006 22.102-23.518 23.265l-6.904.642c-19.518-15.932-44.442-25.491-71.601-25.491-11.362 0-22.331 1.68-32.679 4.792C378.405 216.075 327.287 148.263 256 148.263c-59.501 0-107.735 48.235-107.735 107.735 0 71.286 67.809 122.404 135.901 104.008-11.198 37.223-2.473 77.075 22.182 106.057l-.403 4.743c-1.063 12.526-10.597 22.314-23.091 23.706a242.537 242.537 0 0 1-51.812.196c-12.499-1.298-22.102-11.006-23.265-23.518l-3.224-34.688c-1.758-18.92-23.968-28.015-38.491-15.763l-26.617 22.451c-9.604 8.101-23.256 8.286-33.075.447a241.337 241.337 0 0 1-36.802-36.5c-7.921-9.756-7.848-23.412.178-33.082l22.242-26.799c12.134-14.622 2.862-36.756-16.071-38.364l-34.724-2.946c-12.526-1.063-22.314-10.597-23.706-23.091a242.537 242.537 0 0 1-.196-51.812c1.299-12.498 11.006-22.102 23.518-23.265l34.688-3.224c18.92-1.758 28.015-23.968 15.763-38.491l-22.451-26.617c-8.101-9.604-8.286-23.256-.447-33.075a241.39 241.39 0 0 1 36.5-36.803c9.756-7.921 23.412-7.848 33.082.178l26.799 22.242c14.622 12.134 36.757 2.862 38.364-16.071l2.946-34.724c1.063-12.526 10.597-22.314 23.091-23.706a242.41 242.41 0 0 1 51.812-.196zm111.729 272.082c-57.058 0-103.313 46.255-103.313 103.314S335.629 496 392.687 496 496 449.745 496 392.687s-46.255-103.314-103.313-103.314zm61.518 81.624-76.134 73.839c-6.682 6.476-17.558 5.689-23.214-1.767l-34.701-45.691c-5.182-6.831-3.846-16.57 2.985-21.752s16.57-3.845 21.752 2.985l24.083 31.709 63.539-61.624c6.158-5.989 16.006-5.853 21.996.305 5.989 6.158 5.853 16.006-.305 21.995zm-268.407-47.006c26.317 27.168 66.313 37.008 102.639 24.23 6.502-15.223 16.239-28.733 28.35-39.666-14.181-18.187-36.155-30.039-60.785-30.41-31.055.468-57.891 19.186-70.203 45.846zm70.203-139.872c-19.973 0-36.165 16.192-36.165 36.165s16.192 36.165 36.165 36.165 36.165-16.192 36.165-36.165-16.192-36.165-36.165-36.165z" fill="#ae252c" opacity="1" data-original="#000000" class=""></path></g></svg>