<svg xmlns="http://www.w3.org/2000/svg" version="1.1" xmlns:xlink="http://www.w3.org/1999/xlink" width="512" height="512" x="0" y="0" viewBox="0 0 512 512" style="enable-background:new 0 0 512 512" xml:space="preserve"><g><path d="M485.987 366.154V155.052c0-30.327-24.673-55-55-55h-30.465c10.267 21.142 16.032 44.859 16.032 69.898 0 88.53-72.024 160.554-160.554 160.554S95.446 258.479 95.446 169.95c0-25.039 5.765-48.755 16.032-69.898H81.013c-30.327 0-55 24.673-55 55v211.102zM495.622 396.154H16.378C7.333 396.154 0 403.486 0 412.531c0 33.079 26.816 59.895 59.895 59.895h392.21c33.079 0 59.895-26.816 59.895-59.895 0-9.045-7.333-16.377-16.378-16.377z" fill="#a31717" opacity="1" data-original="#000000"></path><path d="M203.128 289.306a129.412 129.412 0 0 1-4.442-12.064c-7.143-22.729-11.016-53.028-11.784-92.292h-60.589c5.366 46.691 35.457 85.964 76.815 104.356zM256 300.325c4.604 0 18.615 0 28.694-32.076 6.162-19.609 9.648-47.587 10.395-83.299h-78.178c.747 35.712 4.234 63.69 10.396 83.299 10.078 32.076 24.089 32.076 28.693 32.076zM325.097 184.95c-.768 39.265-4.642 69.563-11.783 92.292a129.516 129.516 0 0 1-4.442 12.064c41.358-18.392 71.449-57.666 76.815-104.356zM216.911 154.95h78.178c-.747-35.713-4.233-63.691-10.395-83.3-10.079-32.076-24.09-32.076-28.694-32.076s-18.614 0-28.693 32.076c-6.162 19.609-9.649 47.588-10.396 83.3zM126.313 154.95h60.589c.768-39.265 4.642-69.563 11.784-92.293a129.516 129.516 0 0 1 4.442-12.064c-41.358 18.393-71.449 57.666-76.815 104.357zM308.872 50.593a129.412 129.412 0 0 1 4.442 12.064c7.142 22.729 11.016 53.028 11.783 92.293h60.59c-5.365-46.691-35.457-85.964-76.815-104.357z" fill="#a31717" opacity="1" data-original="#000000"></path></g></svg>